<?xml version="1.0" encoding="utf-8"?>
<!-- Generator: Adobe Illustrator 16.0.0, SVG Export Plug-In . SVG Version: 6.00 Build 0)  -->
<!DOCTYPE svg PUBLIC "-//W3C//DTD SVG 1.1//EN" "http://www.w3.org/Graphics/SVG/1.1/DTD/svg11.dtd">
<svg version="1.1" id="Calque_1" xmlns="http://www.w3.org/2000/svg" xmlns:xlink="http://www.w3.org/1999/xlink" x="0px" y="0px"
	 width="136.208px" height="136.212px" viewBox="0 0 136.208 136.212" enable-background="new 0 0 136.208 136.212"
	 xml:space="preserve">
<path fill-rule="evenodd" clip-rule="evenodd" d="M94.132,136.207c-0.18-1.185-0.267-46.579-0.115-52.023
	c0.006-0.205,0.045-0.408,0.07-0.623c0.416-0.169,0.81-0.101,1.191-0.101c5.072-0.005,10.144-0.001,15.216-0.008
	c0.382,0,0.779,0.082,1.226-0.146c0.864-6.704,1.734-13.446,2.61-20.238c-0.264-0.055-0.46-0.125-0.659-0.131
	c-0.531-0.017-1.063-0.008-1.596-0.008c-5.604,0-11.208,0.002-16.812-0.005c-0.38,0-0.779,0.091-1.19-0.143
	c-0.019-0.258-0.057-0.535-0.057-0.811c-0.002-4.291,0-8.583,0.002-12.875c0.001-1.246,0.134-2.476,0.449-3.685
	c0.665-2.547,2.263-4.197,4.767-4.979c1.433-0.447,2.905-0.639,4.403-0.641c3.369-0.004,6.739-0.005,10.108-0.007
	c0.388,0,0.776,0,1.099,0c0.303-0.29,0.235-0.588,0.236-0.863c0.005-2.057,0.003-4.114,0.003-6.171c0-3.334,0-6.668,0-10.002
	c0-0.388,0-0.776,0-1.096c-0.299-0.415-0.681-0.347-1.021-0.371c-2.404-0.173-4.809-0.341-7.215-0.5
	c-3.152-0.208-6.31-0.244-9.465-0.139c-3.683,0.123-7.248,0.873-10.615,2.4c-6.085,2.759-10.116,7.389-12.294,13.669
	c-0.817,2.355-1.331,4.781-1.512,7.267c-0.107,1.484-0.177,2.973-0.185,4.461c-0.023,4.398-0.008,8.796-0.009,13.194
	c0,0.384-0.014,0.769-0.021,1.118c-0.428,0.271-0.829,0.174-1.208,0.174c-5.072,0.007-10.144,0.004-15.216,0.006
	c-0.383,0-0.767,0.024-1.216,0.039c-0.029,0.363-0.074,0.669-0.075,0.976c-0.006,2.057-0.003,4.114-0.003,6.171
	c0,4.008,0,8.016,0,12.024c0,0.386,0,0.772,0,1.125c0.422,0.293,0.825,0.183,1.201,0.184c3.831,0.01,7.661,0.006,11.492,0.006
	c1.277,0,2.554-0.002,3.831,0.002c0.35,0.001,0.7,0.02,1.107,0.033c0.04,0.235,0.09,0.432,0.104,0.632
	c0.018,0.247,0.005,0.496,0.005,0.745c0,16.634,0,33.269,0,49.903c0,0.422,0,0.845,0,1.318c-0.247,0.044-0.444,0.097-0.643,0.112
	c-0.247,0.018-0.497,0.005-0.745,0.005c-21.104,0-42.207,0-63.31-0.001c-0.708,0-1.41-0.017-2.115-0.156
	c-2.774-0.548-5.76-3.043-5.946-7.126c-0.015-0.319-0.006-0.639-0.006-0.958c0-39.902,0-79.803-0.004-119.705
	C0,7.263,0.051,6.28,0.352,5.318c0.966-3.091,3.745-5.213,6.975-5.312c0.319-0.01,0.639-0.004,0.958-0.004
	c39.901,0,79.803,0,119.704-0.001c0.745,0,1.483,0.015,2.222,0.167c3.433,0.705,5.933,3.684,5.994,7.174
	c0.003,0.213,0.001,0.426,0.001,0.638c0,40.079,0,80.158,0.001,120.237c0,0.781-0.02,1.554-0.212,2.322
	c-0.817,3.263-3.757,5.619-7.124,5.662c-1.667,0.022-3.334,0.005-5.001,0.005c-9.47,0-18.94,0-28.41,0
	C95.038,136.207,94.615,136.207,94.132,136.207z"/>
</svg>
