<?xml version="1.0" encoding="utf-8"?>
<!-- Generator: Adobe Illustrator 16.0.0, SVG Export Plug-In . SVG Version: 6.00 Build 0)  -->
<!DOCTYPE svg PUBLIC "-//W3C//DTD SVG 1.1//EN" "http://www.w3.org/Graphics/SVG/1.1/DTD/svg11.dtd">
<svg version="1.1" id="Calque_1" xmlns="http://www.w3.org/2000/svg" xmlns:xlink="http://www.w3.org/1999/xlink" x="0px" y="0px"
	 width="132.417px" height="133.051px" viewBox="0 0 132.417 133.051" enable-background="new 0 0 132.417 133.051"
	 xml:space="preserve">
<path fill-rule="evenodd" clip-rule="evenodd" d="M65.67,133.002c-10.36,0.001-20.722,0.095-31.081-0.018
	c-20.632-0.226-34.494-14.153-34.549-34.701C-0.017,77.2-0.009,56.115,0.039,35.031C0.085,14.188,14.122,0.112,34.952,0.05
	c20.902-0.062,41.805-0.072,62.707,0.003c20.827,0.075,34.736,14.166,34.748,35.059c0.01,21.084,0.019,42.167-0.002,63.252
	c-0.021,20.328-13.707,34.315-34.017,34.609C87.484,133.13,76.576,133,65.67,133.002z M95.922,56.952
	c4.609,15.303,2.652,28.69-10.428,38.47c-9.997,7.474-21.429,8.535-32.421,2.757C36.152,89.286,32.73,74.514,37.736,57.052
	c-8.633,0-16.724,0-25.328,0c0,14.186-0.064,27.97,0.019,41.755c0.076,12.662,8.176,21.774,20.735,22.02
	c21.987,0.427,43.995,0.425,65.981,0.015c12.929-0.242,20.833-9.25,20.881-22.346c0.025-7.09,0.004-14.179,0.004-21.269
	c0-6.662,0-13.323,0-20.275C111.695,56.952,104.125,56.952,95.922,56.952z M120.029,44.551c0-3.805,0.006-6.696-0.002-9.589
	c-0.041-13.939-8.267-22.599-22.185-22.725c-21.08-0.191-42.163-0.085-63.245-0.024c-6.004,0.018-11.449,1.748-15.878,6.056
	c-7.595,7.389-6.68,16.561-5.868,26.315c11.812,0,23.223,0.056,34.631-0.075c1.322-0.015,2.676-0.986,3.942-1.651
	c10.048-5.28,20.141-5.37,30.309-0.366c1.455,0.716,2.93,1.946,4.412,1.969C97.18,44.628,108.22,44.551,120.029,44.551z
	 M67.143,83.146c6.915-0.119,12.875-6.073,12.925-12.915c0.052-7-6.323-13.291-13.328-13.15c-7.18,0.143-13.029,6.355-12.774,13.568
	C54.216,77.715,60.069,83.267,67.143,83.146z"/>
<path fill-rule="evenodd" clip-rule="evenodd" d="M101.026,38.363c-8.904-0.004-8.904-0.004-8.901-9.543
	c0.004-9.151,0.004-9.151,9.431-9.147c9.045,0.004,9.045,0.004,9.035,10.266C110.581,38.368,110.581,38.368,101.026,38.363z"/>
</svg>
